<svg viewBox="0 0 192 192" fill="none" xmlns="http://www.w3.org/2000/svg">
    <path d="M0 96C0 149.019 42.9807 192 96 192C149.019 192 192 149.019 192 96C192 42.9807 149.019 0 96 0C42.9807 0 0 42.9807 0 96ZM177.6 96C177.6 141.066 141.066 177.6 96 177.6C50.9336 177.6 14.4 141.066 14.4 96C14.4 50.9336 50.9336 14.4 96 14.4C141.066 14.4 177.6 50.9336 177.6 96Z" fill="white"/>
    <path d="M96 7.2C96 3.22355 99.228 -0.0280838 103.193 0.269872C113.337 1.0321 123.311 3.40305 132.738 7.30757C144.385 12.132 154.968 19.2033 163.882 28.1178C172.797 37.0322 179.868 47.6151 184.692 59.2624C188.597 68.6887 190.968 78.6628 191.73 88.8067C192.028 92.772 188.776 96 184.8 96C180.824 96 177.633 92.7703 177.283 88.8093C176.553 80.5581 174.569 72.4518 171.389 64.773C167.288 54.8729 161.277 45.8773 153.7 38.3001C146.123 30.7228 137.127 24.7122 127.227 20.6114C119.548 17.4308 111.442 15.4474 103.191 14.7174C99.2297 14.367 96 11.1764 96 7.2Z" fill="#BAB4B0"/>
</svg>